<svg width="20" height="17" viewBox="0 0 20 17" fill="none" xmlns="http://www.w3.org/2000/svg">
<path d="M14.5833 0.583328H5.41665C5.17831 0.583328 4.94915 0.592495 4.72915 0.629162C2.36415 0.904162 0.833313 2.65499 0.833313 5.16666V11.5833C0.833313 14.3333 2.66665 16.1667 5.41665 16.1667H14.5833C17.3333 16.1667 19.1666 14.3333 19.1666 11.5833V5.16666C19.1666 2.41666 17.3333 0.583328 14.5833 0.583328ZM6.22331 10.6667C4.95831 10.6667 3.93165 9.63999 3.93165 8.37499C3.93165 7.10999 4.95831 6.08333 6.22331 6.08333C7.48831 6.08333 8.51498 7.10999 8.51498 8.37499C8.51498 9.63999 7.48831 10.6667 6.22331 10.6667ZM12.1816 10.8958H11.7233C11.3475 10.8958 11.0358 10.5842 11.0358 10.2083C11.0358 9.83249 11.3475 9.52083 11.7233 9.52083H12.1816C12.5575 9.52083 12.8691 9.83249 12.8691 10.2083C12.8691 10.5842 12.5575 10.8958 12.1816 10.8958ZM15.39 10.8958H14.9316C14.5558 10.8958 14.2441 10.5842 14.2441 10.2083C14.2441 9.83249 14.5558 9.52083 14.9316 9.52083H15.39C15.7658 9.52083 16.0775 9.83249 16.0775 10.2083C16.0775 10.5842 15.7658 10.8958 15.39 10.8958ZM15.39 7.22916H11.7233C11.3475 7.22916 11.0358 6.91749 11.0358 6.54166C11.0358 6.16583 11.3475 5.85416 11.7233 5.85416H15.39C15.7658 5.85416 16.0775 6.16583 16.0775 6.54166C16.0775 6.91749 15.7658 7.22916 15.39 7.22916Z" fill="#EFEEE0" fill-opacity="0.25"/>
</svg>
